<svg xmlns="http://www.w3.org/2000/svg" viewBox="0 0 200 200" fill="none">
  <defs>
    <linearGradient id="orchGrad" x1="0" y1="0" x2="1" y2="1">
      <stop offset="0%" stop-color="#8e44ad"/>
      <stop offset="100%" stop-color="#1a73e8"/>
    </linearGradient>
  </defs>
  <!-- Central agent node -->
  <circle cx="100" cy="100" r="28" fill="url(#orchGrad)" opacity="0.9"/>
  <!-- Brain / AI symbol in center -->
  <path d="M90 100 C90 92 94 88 100 88 C106 88 110 92 110 100 C110 108 106 112 100 112 C94 112 90 108 90 100Z" fill="none" stroke="#fff" stroke-width="2"/>
  <path d="M96 94 C96 90 100 88 100 88 C100 88 104 90 104 94" fill="none" stroke="#fff" stroke-width="1.5" stroke-linecap="round"/>
  <line x1="100" y1="88" x2="100" y2="112" stroke="#fff" stroke-width="1.5" opacity="0.5"/>
  <line x1="90" y1="100" x2="110" y2="100" stroke="#fff" stroke-width="1.5" opacity="0.5"/>
  <!-- Tool nodes -->
  <!-- Top-left: wrench -->
  <circle cx="46" cy="46" r="18" stroke="#8e44ad" stroke-width="2.5" fill="none"/>
  <path d="M40 52 L52 40" stroke="#8e44ad" stroke-width="2.5" stroke-linecap="round"/>
  <circle cx="51" cy="41" r="3" fill="#8e44ad" opacity="0.6"/>
  <!-- Top-right: chat bubble -->
  <circle cx="154" cy="46" r="18" stroke="#1a73e8" stroke-width="2.5" fill="none"/>
  <rect x="143" y="39" width="22" height="14" rx="4" fill="#1a73e8" opacity="0.7"/>
  <circle cx="150" cy="46" r="1.5" fill="#fff"/>
  <circle cx="154" cy="46" r="1.5" fill="#fff"/>
  <circle cx="158" cy="46" r="1.5" fill="#fff"/>
  <!-- Bottom-left: gear -->
  <circle cx="46" cy="154" r="18" stroke="#1a73e8" stroke-width="2.5" fill="none"/>
  <circle cx="46" cy="154" r="8" stroke="#1a73e8" stroke-width="2" fill="none"/>
  <line x1="46" y1="142" x2="46" y2="146" stroke="#1a73e8" stroke-width="2" stroke-linecap="round"/>
  <line x1="46" y1="162" x2="46" y2="166" stroke="#1a73e8" stroke-width="2" stroke-linecap="round"/>
  <line x1="34" y1="154" x2="38" y2="154" stroke="#1a73e8" stroke-width="2" stroke-linecap="round"/>
  <line x1="54" y1="154" x2="58" y2="154" stroke="#1a73e8" stroke-width="2" stroke-linecap="round"/>
  <!-- Bottom-right: lightning bolt -->
  <circle cx="154" cy="154" r="18" stroke="#8e44ad" stroke-width="2.5" fill="none"/>
  <polygon points="156,142 148,156 153,156 150,166 160,152 155,152" fill="#8e44ad" opacity="0.8"/>
  <!-- Connection lines -->
  <line x1="72" y1="82" x2="60" y2="62" stroke="#8e44ad" stroke-width="1.5" opacity="0.5" stroke-dasharray="4,3"/>
  <line x1="128" y1="82" x2="140" y2="62" stroke="#1a73e8" stroke-width="1.5" opacity="0.5" stroke-dasharray="4,3"/>
  <line x1="72" y1="118" x2="60" y2="138" stroke="#1a73e8" stroke-width="1.5" opacity="0.5" stroke-dasharray="4,3"/>
  <line x1="128" y1="118" x2="140" y2="138" stroke="#8e44ad" stroke-width="1.5" opacity="0.5" stroke-dasharray="4,3"/>
  <!-- Orbiting dots -->
  <circle cx="100" cy="62" r="3" fill="#00e5ff" opacity="0.7"/>
  <circle cx="138" cy="100" r="3" fill="#00e5ff" opacity="0.7"/>
  <circle cx="100" cy="138" r="3" fill="#00e5ff" opacity="0.7"/>
  <circle cx="62" cy="100" r="3" fill="#00e5ff" opacity="0.7"/>
</svg>
